<svg width="23" height="21" viewBox="0 0 23 21" xmlns="http://www.w3.org/2000/svg"><title>64px_chat-round-content</title><path d="M23 9.274C23 4.081 17.955 0 11.5 0S0 4.08 0 9.274c0 5.23 5.156 9.46 11.5 9.46a12.26 12.26 0 0 0 3.079-.371l5.676 2.337c.037.074.111.074.148.074a.527.527 0 0 0 .223-.074c.111-.074.148-.185.148-.334l-.37-5.12C22.072 13.578 23 11.464 23 9.275zm-10.758 2.597H6.306c-.222 0-.37-.148-.37-.371s.148-.371.37-.371h5.936c.223 0 .37.148.37.371s-.147.371-.37.371zm4.452-4.452H6.306c-.222 0-.37-.148-.37-.37 0-.223.148-.372.37-.372h10.388c.222 0 .37.149.37.371 0 .223-.148.371-.37.371z" fill="#444"/></svg>