<svg width="23" height="19" viewBox="0 0 23 19" xmlns="http://www.w3.org/2000/svg"><title>64px_logo-twitter</title><path d="M23 2.228c-.863.36-1.76.647-2.695.755A4.751 4.751 0 0 0 22.389.359a9.364 9.364 0 0 1-2.983 1.15C18.508.575 17.286 0 15.92 0a4.7 4.7 0 0 0-4.707 4.708c0 .36.035.719.107 1.078-3.917-.18-7.403-2.084-9.703-4.923a4.778 4.778 0 0 0-.647 2.37c0 1.654.827 3.091 2.085 3.918a5.013 5.013 0 0 1-2.12-.575v.071a4.71 4.71 0 0 0 3.773 4.636c-.396.108-.827.18-1.258.18-.288 0-.61-.036-.898-.072a4.729 4.729 0 0 0 4.42 3.27 9.547 9.547 0 0 1-5.858 2.013c-.395 0-.755-.036-1.114-.072a13.688 13.688 0 0 0 7.223 2.084c8.697 0 13.441-7.187 13.441-13.44v-.611A9.924 9.924 0 0 0 23 2.228z" fill="#444"/></svg>